<svg width="128" height="128" viewBox="0 0 128 128" fill="none" xmlns="http://www.w3.org/2000/svg">
<rect width="128" height="128" fill="white"/>
<path fill-rule="evenodd" clip-rule="evenodd" d="M95.7785 37.3855C99.103 38.5915 100.82 42.2642 99.6144 45.5887C94.7859 58.8997 87.5476 74.7393 77.0524 87.3566C66.501 100.041 52.1701 110 33.4034 110C29.8669 110 27 107.133 27 103.597C27 100.06 29.8669 97.1933 33.4034 97.1933C47.0928 97.1933 58.1368 90.0705 67.2067 79.1668C76.3328 68.1954 82.962 53.9393 87.5753 41.2215C88.7813 37.897 92.454 36.1796 95.7785 37.3855Z" fill="#003E66"/>
<path fill-rule="evenodd" clip-rule="evenodd" d="M52.6764 59.1176C51.9884 55.6916 48.6472 53.4545 45.1914 54.1158C41.7207 54.78 39.4486 58.116 40.1165 61.567L46.4008 60.3644C40.1165 61.567 40.1172 61.5707 40.1179 61.5744L40.1195 61.5823L40.1229 61.5998L40.1313 61.6413C40.1375 61.6718 40.145 61.708 40.1539 61.7497C40.1716 61.8332 40.195 61.939 40.2246 62.066C40.2839 62.3199 40.3683 62.6591 40.4836 63.075C40.714 63.9065 41.0683 65.0474 41.5921 66.4295C42.6391 69.1925 44.3687 72.934 47.1491 77.0975C52.7443 85.476 62.4867 95.3946 79.072 102.481C82.3193 103.869 86.083 102.376 87.4784 99.1475C88.8739 95.9187 87.3727 92.1764 84.1255 90.7888C69.9926 84.7498 62.1361 76.533 57.8118 70.0577C55.6325 66.7943 54.3223 63.9292 53.5694 61.9423C53.1932 60.9496 52.9575 60.1797 52.823 59.6942C52.7557 59.4516 52.7139 59.2807 52.6926 59.1892C52.6839 59.1519 52.6786 59.1279 52.6764 59.1176Z" fill="#003E66"/>
<path fill-rule="evenodd" clip-rule="evenodd" d="M69.5 18C73.0899 18 76 20.8277 76 24.3158V35.6842C76 39.1723 73.0899 42 69.5 42C65.9101 42 63 39.1723 63 35.6842V24.3158C63 20.8277 65.9101 18 69.5 18Z" fill="#FF3E00"/>
<path fill-rule="evenodd" clip-rule="evenodd" d="M67.7822 45.0544C55.2519 45.1014 42.5764 48.1862 27.9732 54.4772C24.6969 55.8886 20.9106 54.3439 19.5164 51.0271C18.1222 47.7102 19.648 43.8771 22.9244 42.4657C38.6228 35.7028 53.0254 32.0559 67.7343 32.0006C82.4502 31.9453 97.0336 35.4865 113.097 42.4748C116.368 43.898 117.88 47.7366 116.475 51.0484C115.069 54.3602 111.277 55.8913 108.006 54.468C93.1225 47.993 80.3055 45.0073 67.7822 45.0544Z" fill="#FF3E00"/>
</svg>
