<svg width="309" height="128" viewBox="0 0 309 128" fill="none" xmlns="http://www.w3.org/2000/svg">
<path d="M133.504 90.144C130.624 90.144 129.184 89.376 129.184 87.84V49.032H117.736C116.296 49.032 115.576 47.832 115.576 45.432V43.2C115.576 40.8 116.296 39.6 117.736 39.6H151.792C153.232 39.6 153.952 40.8 153.952 43.2V45.432C153.952 47.832 153.232 49.032 151.792 49.032H140.344V87.84C140.344 89.376 138.904 90.144 136.024 90.144H133.504ZM250.082 90.576C246.434 90.576 243.362 90.216 240.866 89.496C238.37 88.728 236.474 87.888 235.178 86.976C233.834 86.064 233.162 85.152 233.162 84.24C233.162 83.472 233.426 82.608 233.954 81.648C234.482 80.64 235.106 79.752 235.826 78.984C236.546 78.216 237.146 77.832 237.626 77.832C237.866 77.832 238.13 77.928 238.418 78.12C238.754 78.264 239.162 78.456 239.642 78.696C240.602 79.176 241.778 79.704 243.17 80.28C244.61 80.856 246.29 81.144 248.21 81.144C249.266 81.144 250.298 81.024 251.306 80.784C252.362 80.496 253.226 79.992 253.898 79.272C254.618 78.504 254.978 77.448 254.978 76.104C254.978 74.664 254.426 73.512 253.322 72.648C252.218 71.784 250.802 71.016 249.074 70.344C247.394 69.672 245.666 68.904 243.89 68.04C242.642 67.464 241.442 66.792 240.29 66.024C239.138 65.208 238.082 64.248 237.122 63.144C236.21 62.04 235.49 60.72 234.962 59.184C234.434 57.6 234.17 55.728 234.17 53.568C234.17 50.112 235.01 47.328 236.69 45.216C238.37 43.056 240.506 41.496 243.098 40.536C245.738 39.528 248.45 39.024 251.234 39.024C252.962 39.024 254.546 39.144 255.986 39.384C257.426 39.624 258.698 39.96 259.802 40.392C260.954 40.776 261.89 41.232 262.61 41.76C263.666 42.528 264.194 43.296 264.194 44.064C264.194 44.688 263.978 45.504 263.546 46.512C263.162 47.52 262.658 48.408 262.034 49.176C261.41 49.944 260.81 50.328 260.234 50.328C259.994 50.328 259.658 50.232 259.226 50.04C258.842 49.848 258.314 49.632 257.642 49.392C257.018 49.152 256.25 48.96 255.338 48.816C254.474 48.624 253.442 48.528 252.242 48.528C250.37 48.528 248.954 48.744 247.994 49.176C247.034 49.608 246.386 50.136 246.05 50.76C245.714 51.384 245.546 51.984 245.546 52.56C245.546 53.856 245.906 54.936 246.626 55.8C247.346 56.616 248.282 57.312 249.434 57.888C250.586 58.464 251.858 59.04 253.25 59.616C254.738 60.24 256.25 60.936 257.786 61.704C259.322 62.424 260.738 63.336 262.034 64.44C263.33 65.544 264.362 66.936 265.13 68.616C265.946 70.296 266.354 72.36 266.354 74.808C266.354 77.736 265.874 80.208 264.914 82.224C264.002 84.24 262.754 85.872 261.17 87.12C259.586 88.32 257.834 89.208 255.914 89.784C253.994 90.312 252.05 90.576 250.082 90.576Z" fill="#FF3E00"/>
<path d="M160.564 90C159.124 90 158.404 88.8 158.404 86.4V85.176C158.404 82.776 159.124 81.576 160.564 81.576H170.14V49.248L160.348 50.688C159.724 50.688 159.244 50.328 158.908 49.608C158.572 48.888 158.332 48.048 158.188 47.088C158.092 46.128 158.044 45.312 158.044 44.64C158.044 43.536 158.668 42.864 159.916 42.624L177.844 39.312C178.42 39.312 179.044 39.504 179.716 39.888C180.436 40.224 180.796 40.608 180.796 41.04V81.576H187.78C189.22 81.576 189.94 82.776 189.94 85.176V86.4C189.94 88.8 189.22 90 187.78 90H160.564ZM212.559 90.576C208.479 90.576 205.143 89.88 202.551 88.488C200.007 87.096 198.135 85.248 196.935 82.944C195.735 80.64 195.135 78.168 195.135 75.528C195.135 73.272 195.471 71.304 196.143 69.624C196.815 67.944 197.703 66.552 198.807 65.448C199.911 64.296 201.111 63.48 202.407 63C200.871 61.944 199.599 60.624 198.591 59.04C197.583 57.408 197.079 55.272 197.079 52.632C197.079 50.28 197.655 48.072 198.807 46.008C199.959 43.944 201.711 42.264 204.063 40.968C206.415 39.672 209.367 39.024 212.919 39.024C216.039 39.024 218.703 39.6 220.911 40.752C223.167 41.904 224.871 43.44 226.023 45.36C227.223 47.232 227.823 49.296 227.823 51.552C227.823 54.576 227.223 56.88 226.023 58.464C224.871 60.048 223.383 61.32 221.559 62.28C223.047 62.952 224.391 63.864 225.591 65.016C226.791 66.168 227.727 67.656 228.399 69.48C229.119 71.304 229.479 73.536 229.479 76.176C229.479 77.808 229.167 79.488 228.543 81.216C227.919 82.896 226.935 84.456 225.591 85.896C224.295 87.288 222.567 88.416 220.407 89.28C218.247 90.144 215.631 90.576 212.559 90.576ZM212.415 82.152C213.807 82.152 214.959 81.816 215.871 81.144C216.831 80.472 217.527 79.632 217.959 78.624C218.439 77.616 218.679 76.608 218.679 75.6C218.679 74.16 218.439 72.96 217.959 72C217.479 71.04 216.831 70.248 216.015 69.624C215.199 68.952 214.239 68.376 213.135 67.896C212.079 67.416 210.975 66.96 209.823 66.528C208.623 67.44 207.663 68.544 206.943 69.84C206.223 71.136 205.863 72.816 205.863 74.88C205.863 77.04 206.439 78.792 207.591 80.136C208.743 81.48 210.351 82.152 212.415 82.152ZM213.567 58.896C214.863 58.032 215.823 57.048 216.447 55.944C217.119 54.792 217.455 53.568 217.455 52.272C217.455 50.736 216.951 49.56 215.943 48.744C214.983 47.88 213.855 47.448 212.559 47.448C211.263 47.448 210.111 47.856 209.103 48.672C208.095 49.488 207.591 50.688 207.591 52.272C207.591 53.472 207.855 54.48 208.383 55.296C208.911 56.112 209.631 56.808 210.543 57.384C211.455 57.912 212.463 58.416 213.567 58.896Z" fill="#004979"/>
<path d="M37 90C62.3431 90 76.6275 63.3243 84 43" stroke="#004979" stroke-width="10" stroke-linecap="round"/>
<path d="M47 56C47 56 50.5 74.1863 74.5 84.5" stroke="#004979" stroke-width="10" stroke-linecap="round"/>
<path d="M65 28V37" stroke="#FF3E00" stroke-width="10" stroke-linecap="round"/>
<path d="M31 46.6181C54.5 36.6181 73 36.3044 97 46.6181" stroke="#FF3E00" stroke-width="10" stroke-linecap="round"/>
</svg>
